<?xml version="1.0" standalone="no"?>
<!DOCTYPE svg PUBLIC "-//W3C//DTD SVG 20010904//EN"
 "http://www.w3.org/TR/2001/REC-SVG-20010904/DTD/svg10.dtd">
<svg version="1.0" xmlns="http://www.w3.org/2000/svg"
 width="512.000000pt" height="512.000000pt" viewBox="0 0 512.000000 512.000000"
 preserveAspectRatio="xMidYMid meet">

<g transform="translate(0.000000,512.000000) scale(0.100000,-0.100000)"
fill="#000000" stroke="none">
<path d="M0 2560 l0 -2560 2560 0 2560 0 0 2560 0 2560 -2560 0 -2560 0 0
-2560z m2595 1199 c10 -14 60 -228 75 -314 6 -38 20 -93 31 -120 10 -28 19
-61 19 -73 0 -13 5 -43 11 -68 l12 -45 71 4 c263 19 561 34 572 30 20 -8 23
-28 8 -60 -16 -33 -227 -243 -344 -342 -41 -35 -94 -81 -118 -103 l-42 -39 30
-87 c17 -48 37 -112 45 -142 7 -30 27 -104 43 -165 16 -60 32 -121 34 -135 17
-84 54 -203 79 -252 16 -31 26 -64 23 -72 -12 -31 -58 -29 -69 4 -3 9 -22 35
-43 56 -20 21 -52 56 -71 79 -18 22 -115 117 -214 212 l-181 172 -35 -31 c-20
-17 -99 -91 -176 -163 -134 -127 -181 -169 -290 -259 -27 -22 -76 -67 -109
-98 -60 -59 -89 -71 -100 -42 -11 30 -6 48 38 118 45 74 71 126 126 261 19 44
44 103 56 130 12 28 26 64 29 80 4 17 22 73 40 125 42 121 55 164 55 177 0 6
-50 48 -111 94 -61 46 -147 112 -192 147 -45 34 -120 82 -167 106 -47 24 -104
54 -127 66 -32 16 -43 28 -43 45 0 13 7 26 16 29 9 3 145 7 302 7 158 1 329 4
381 8 l94 6 18 80 c9 44 21 94 27 110 6 17 29 98 52 180 22 83 52 183 67 223
22 61 29 72 49 72 12 0 26 -5 29 -11z"/>
<path d="M2532 3515 c-17 -55 -36 -122 -42 -150 -6 -27 -20 -77 -30 -110 -11
-33 -22 -79 -26 -103 l-7 -43 114 6 c63 4 119 8 125 10 12 4 3 49 -32 170 -8
28 -26 106 -40 175 -14 69 -26 130 -28 135 -1 6 -17 -35 -34 -90z"/>
<path d="M3015 3089 c-157 -11 -245 -21 -245 -28 0 -9 44 -185 71 -283 l21
-77 51 42 c110 92 377 342 377 353 0 6 -156 2 -275 -7z"/>
<path d="M2545 3048 c-71 -5 -133 -13 -137 -16 -11 -12 -119 -404 -114 -417 3
-10 51 -50 227 -194 l30 -24 129 130 129 130 -18 50 c-15 42 -63 224 -85 326
-4 15 -12 26 -19 26 -6 -1 -70 -6 -142 -11z"/>
<path d="M1970 3022 l-235 -2 74 -41 c73 -39 96 -56 184 -129 23 -20 69 -55
102 -80 33 -24 77 -56 97 -72 l37 -28 20 67 c11 38 32 113 47 168 14 55 29
105 31 112 4 10 -10 12 -58 11 -35 -2 -170 -4 -299 -6z"/>
<path d="M2714 2463 l-105 -108 118 -113 c65 -62 153 -147 196 -188 43 -41 76
-67 74 -57 -9 30 -25 94 -46 178 -60 247 -103 387 -120 393 -6 2 -58 -45 -117
-105z"/>
<path d="M2250 2523 c-1 -10 -10 -43 -21 -73 -11 -30 -33 -95 -48 -145 -25
-78 -70 -189 -142 -352 -10 -24 -16 -43 -12 -43 14 0 184 151 357 318 l119
115 -49 44 c-27 24 -72 61 -99 82 -28 21 -56 45 -64 54 -18 22 -41 22 -41 0z"/>
</g>
</svg>
